<svg t="1774076391051" class="icon" viewBox="0 0 1024 1024" version="1.1" xmlns="http://www.w3.org/2000/svg" p-id="7079" width="200" height="200">
  <path d="M863.744 896h-224.256c-17.92 0-31.744-14.336-31.744-31.744s14.336-31.744 31.744-31.744h192.512v-640h-640v190.976c0 17.92-14.336 32.256-32.256 32.256S128 400.896 128 383.488V160.256c0-17.92 14.336-32.256 32.256-32.256h704c17.92 0 31.744 14.336 31.744 32.256v704c0 17.408-14.336 31.744-32.256 31.744z" fill="#2c2c2c" p-id="7080"></path>
  <path d="M482.304 896h-322.56c-17.92 0-32.256-14.336-32.256-31.744v-322.56c0-17.92 14.336-32.256 32.256-32.256h322.56c17.92 0 32.256 14.336 32.256 32.256v322.56c0 17.408-14.336 31.744-32.256 31.744z m-290.304-64H450.56V573.44H192v258.56z" fill="#2c2c2c" p-id="7081"></path>
</svg>
